<?xml version="1.0" encoding="UTF-8" standalone="no"?>
<svg xmlns="http://www.w3.org/2000/svg" width="256" height="256" viewBox="0 0 256 256">
    <!-- Player sprites -->
    <g id="player-idle">
        <circle cx="16" cy="16" r="12" fill="#2196f3"/>
        <path d="M16 10v12M10 16h12" stroke="white" stroke-width="2"/>
    </g>
    <g id="player-walk1" transform="translate(32,0)">
        <circle cx="16" cy="16" r="12" fill="#2196f3"/>
        <path d="M16 10v12M10 16h12" stroke="white" stroke-width="2" transform="rotate(15,16,16)"/>
    </g>
    <g id="player-walk2" transform="translate(64,0)">
        <circle cx="16" cy="16" r="12" fill="#2196f3"/>
        <path d="M16 10v12M10 16h12" stroke="white" stroke-width="2" transform="rotate(-15,16,16)"/>
    </g>
    
    <!-- Crystal sprites -->
    <g id="crystal-idle" transform="translate(0,32)">
        <path d="M8 8l4-8h8l4 8-8 8z" fill="#ffeb3b"/>
        <path d="M16 0v16" stroke="#fdd835" stroke-width="1"/>
    </g>
    <g id="crystal-collect1" transform="translate(16,32)">
        <path d="M8 8l4-8h8l4 8-8 8z" fill="#ffeb3b" opacity="0.7"/>
    </g>
    <g id="crystal-collect2" transform="translate(32,32)">
        <path d="M8 8l4-8h8l4 8-8 8z" fill="#ffeb3b" opacity="0.4"/>
    </g>
    
    <!-- Enemy sprites -->
    <g id="enemy-idle" transform="translate(0,48)">
        <path d="M16 0l16 32H0z" fill="#f44336"/>
        <circle cx="16" cy="16" r="4" fill="white"/>
    </g>
    <g id="enemy-move1" transform="translate(32,48)">
        <path d="M16 4l16 32H0z" fill="#f44336"/>
        <circle cx="16" cy="20" r="4" fill="white"/>
    </g>
    <g id="enemy-move2" transform="translate(64,48)">
        <path d="M16 0l16 32H0z" fill="#f44336"/>
        <circle cx="16" cy="16" r="4" fill="white"/>
    </g>
    
    <!-- Portal sprites -->
    <g id="portal1" transform="translate(0,80)">
        <circle cx="24" cy="24" r="20" fill="none" stroke="#9c27b0" stroke-width="4"/>
        <path d="M24 4c11 11-11 11 0 22c11 11-11 11 0 22" stroke="#e1bee7" stroke-width="2" fill="none"/>
    </g>
    <g id="portal2" transform="translate(48,80)">
        <circle cx="24" cy="24" r="20" fill="none" stroke="#9c27b0" stroke-width="4"/>
        <path d="M24 4c11 11-11 11 0 22c11 11-11 11 0 22" stroke="#e1bee7" stroke-width="2" fill="none" transform="rotate(120,24,24)"/>
    </g>
    <g id="portal3" transform="translate(96,80)">
        <circle cx="24" cy="24" r="20" fill="none" stroke="#9c27b0" stroke-width="4"/>
        <path d="M24 4c11 11-11 11 0 22c11 11-11 11 0 22" stroke="#e1bee7" stroke-width="2" fill="none" transform="rotate(240,24,24)"/>
    </g>
</svg>
